<?xml version="1.0" encoding="UTF-8" standalone="no"?>
<!DOCTYPE svg PUBLIC "-//W3C//DTD SVG 1.1//EN" "http://www.w3.org/Graphics/SVG/1.1/DTD/svg11.dtd">
<svg version="1.1" xmlns="http://www.w3.org/2000/svg" xmlns:xlink="http://www.w3.org/1999/xlink" preserveAspectRatio="xMidYMid meet" viewBox="0 0 640 640" width="640" height="640"><defs><path d="M496.54 419.22C496.54 536.11 417.5 630.87 320 630.87C222.5 630.87 143.46 536.11 143.46 419.22C143.46 302.33 222.5 207.57 320 29.34C417.5 207.57 496.54 302.33 496.54 419.22Z" id="aSEyuvibr"></path><path d="M572.36 529.39C598.11 510.84 608.65 481.44 595.89 463.73C583.13 446.01 551.91 446.68 526.16 465.22C500.4 483.77 489.87 513.17 463.35 559.16C515.38 548.6 546.6 547.93 572.36 529.39Z" id="cifGOlRbB"></path><path d="M78.35 536.6C54.98 516.41 46.08 488.43 58.45 474.11C70.83 459.79 99.81 464.55 123.17 484.74C146.54 504.94 155.44 532.92 178.69 578.03C130.69 561.56 101.71 556.8 78.35 536.6Z" id="a4ai5HLDvm"></path><path d="M531.98 622.72C561.79 617.71 583.42 598.52 580.28 579.85C577.15 561.18 550.44 550.11 520.63 555.11C490.82 560.12 469.2 579.31 426.88 605.61C475.47 616.65 502.17 627.72 531.98 622.72Z" id="b1s99rrF4Z"></path><path d="M113.24 636.62C86.24 641.18 61.9 630.35 58.87 612.42C55.84 594.49 75.27 576.26 102.26 571.7C129.26 567.13 153.6 577.97 197.79 588.94C159.66 613.83 140.23 632.06 113.24 636.62Z" id="apgxNxLIE"></path></defs><g><g><g><use xlink:href="#aSEyuvibr" opacity="1" fill="#8fede9" fill-opacity="1"></use></g><g><use xlink:href="#cifGOlRbB" opacity="1" fill="#8fede9" fill-opacity="1"></use></g><g><use xlink:href="#a4ai5HLDvm" opacity="1" fill="#8fede9" fill-opacity="1"></use></g><g><use xlink:href="#b1s99rrF4Z" opacity="1" fill="#8fede9" fill-opacity="1"></use></g><g><use xlink:href="#apgxNxLIE" opacity="1" fill="#8fede9" fill-opacity="1"></use></g></g></g></svg>